<?xml version="1.0" encoding="UTF-8" standalone="no"?>
<!DOCTYPE svg PUBLIC "-//W3C//DTD SVG 1.1//EN" "http://www.w3.org/Graphics/SVG/1.1/DTD/svg11.dtd">
<svg width="100%" height="100%" viewBox="0 0 32 48" version="1.1" xmlns="http://www.w3.org/2000/svg" xmlns:xlink="http://www.w3.org/1999/xlink" xml:space="preserve" xmlns:serif="http://www.serif.com/" style="fill-rule:evenodd;clip-rule:evenodd;stroke-linejoin:round;stroke-miterlimit:2;">
    <g transform="matrix(1,0,0,1,-43.6,-0.0793651)">
        <path d="M67.396,23.653C67.352,23.931 67.247,24.196 67.086,24.427C66.926,24.659 66.715,24.851 66.47,24.99C65.977,25.309 65.545,25.468 65.108,25.627C64.177,25.949 63.197,26.27 62.161,26.643C61.069,27.016 60.089,27.389 59.215,27.659C58.125,28.031 57.089,28.353 56.104,28.725C55.363,29.043 54.667,29.456 54.035,29.954C53.446,30.488 52.932,31.098 52.507,31.77C52.07,32.515 51.795,33.477 51.795,34.597C51.795,36.842 52.34,38.549 53.433,39.616C54.523,40.74 56.544,41.272 59.539,41.272C62.593,41.272 64.665,40.686 65.761,39.511C66.848,38.336 67.393,36.683 67.393,34.549L67.393,23.653L67.396,23.653ZM59.542,0C64.889,0 68.815,1.016 71.322,3.098C73.831,5.129 75.086,7.741 75.086,10.837L75.086,37.215C75.086,38.282 74.87,39.457 74.489,40.737C74.104,42.023 73.343,43.195 72.142,44.259C70.998,45.331 69.417,46.239 67.398,46.933C65.38,47.627 62.763,48 59.544,48C56.33,48 53.708,47.627 51.692,46.933C49.677,46.239 48.093,45.331 46.949,44.259C45.885,43.3 45.078,42.089 44.604,40.737C44.219,39.459 44,38.284 44,37.217L44,33.001C44,30.757 44.599,28.674 45.8,26.856C47,24.99 48.689,23.709 50.872,22.907C51.962,22.535 53.217,22.162 54.634,21.681C56.053,21.198 57.359,20.717 58.67,20.293C59.981,19.863 61.125,19.434 62.105,19.059C62.696,18.822 63.296,18.609 63.904,18.421L64.887,17.94C65.272,17.727 65.65,17.406 66.033,16.979C66.414,16.555 66.74,16.074 67.015,15.539C67.306,14.96 67.456,14.32 67.452,13.672L67.452,11.963C67.456,11.336 67.325,10.716 67.067,10.145C66.851,9.502 66.414,8.916 65.815,8.384C65.216,7.849 64.396,7.422 63.416,7.098C62.434,6.782 61.128,6.62 59.652,6.62C56.598,6.62 54.58,7.212 53.489,8.435C52.564,9.505 52.019,10.839 51.911,12.333C51.911,12.654 51.638,12.868 51.309,12.868L44.658,12.976C44.5,12.976 44.348,12.915 44.236,12.804C44.123,12.693 44.059,12.542 44.057,12.384L44.057,10.842C44.057,9.343 44.332,7.955 44.931,6.62C45.532,5.283 46.46,4.165 47.713,3.201C48.967,2.242 50.605,1.442 52.567,0.908C54.477,0.265 56.821,0 59.547,0L59.542,0Z" style="fill:rgb(10,56,113);"/>
    </g>
</svg>
